<svg id="my-svg" width="100%" xmlns="http://www.w3.org/2000/svg" xmlns:xlink="http://www.w3.org/1999/xlink" class="flowchart" style="max-width: 1152.81px; background-color: white;" viewBox="4 4 1152.805908203125 176" role="graphics-document document" aria-roledescription="flowchart-v2"><style>#my-svg{font-family:DejaVu Sans,Arial,sans-serif;font-size:14px;fill:#1a202c;}@keyframes edge-animation-frame{from{stroke-dashoffset:0;}}@keyframes dash{to{stroke-dashoffset:0;}}#my-svg .edge-animation-slow{stroke-dasharray:9,5!important;stroke-dashoffset:900;animation:dash 50s linear infinite;stroke-linecap:round;}#my-svg .edge-animation-fast{stroke-dasharray:9,5!important;stroke-dashoffset:900;animation:dash 20s linear infinite;stroke-linecap:round;}#my-svg .error-icon{fill:#ffffff;}#my-svg .error-text{fill:#000000;stroke:#000000;}#my-svg .edge-thickness-normal{stroke-width:1px;}#my-svg .edge-thickness-thick{stroke-width:3.5px;}#my-svg .edge-pattern-solid{stroke-dasharray:0;}#my-svg .edge-thickness-invisible{stroke-width:0;fill:none;}#my-svg .edge-pattern-dashed{stroke-dasharray:3;}#my-svg .edge-pattern-dotted{stroke-dasharray:2;}#my-svg .marker{fill:#4a5568;stroke:#4a5568;}#my-svg .marker.cross{stroke:#4a5568;}#my-svg svg{font-family:DejaVu Sans,Arial,sans-serif;font-size:14px;}#my-svg p{margin:0;}#my-svg .label{font-family:DejaVu Sans,Arial,sans-serif;color:#1a202c;}#my-svg .cluster-label text{fill:#000000;}#my-svg .cluster-label span{color:#000000;}#my-svg .cluster-label span p{background-color:transparent;}#my-svg .label text,#my-svg span{fill:#1a202c;color:#1a202c;}#my-svg .node rect,#my-svg .node circle,#my-svg .node ellipse,#my-svg .node polygon,#my-svg .node path{fill:#eef4fa;stroke:#1f5f8b;stroke-width:1px;}#my-svg .rough-node .label text,#my-svg .node .label text,#my-svg .image-shape .label,#my-svg .icon-shape .label{text-anchor:middle;}#my-svg .node .katex path{fill:#000;stroke:#000;stroke-width:1px;}#my-svg .rough-node .label,#my-svg .node .label,#my-svg .image-shape .label,#my-svg .icon-shape .label{text-align:center;}#my-svg .node.clickable{cursor:pointer;}#my-svg .root .anchor path{fill:#4a5568!important;stroke-width:0;stroke:#4a5568;}#my-svg .arrowheadPath{fill:#0b0b0b;}#my-svg .edgePaths .path{stroke:#4a5568;stroke-width:1px;}#my-svg .flowchart-link{stroke:#4a5568;fill:none;}#my-svg .edgeLabel{background-color:#f6f7f9;text-align:center;}#my-svg .edgeLabel p{background-color:#f6f7f9;}#my-svg .edgeLabel rect{opacity:0.5;background-color:#f6f7f9;fill:#f6f7f9;}#my-svg .labelBkg{background-color:rgba(246, 247, 249, 0.5);}#my-svg .cluster rect{fill:#f9fafb;stroke:#a0aec0;stroke-width:1px;}#my-svg .cluster text{fill:#000000;}#my-svg .cluster span{color:#000000;}#my-svg .node .collapsed-indicator{fill:#a0aec0;stroke:none;opacity:0.6;}#my-svg .node .collapsed-separator{stroke:#a0aec0;stroke-width:0.75px;}#my-svg div.mermaidTooltip{position:absolute;text-align:center;max-width:200px;padding:2px;font-family:DejaVu Sans,Arial,sans-serif;font-size:12px;background:#ffffff;border:1px solid hsl(0, 0%, 90%);border-radius:2px;pointer-events:none;z-index:100;}#my-svg .flowchartTitleText{text-anchor:middle;font-size:18px;fill:#1a202c;}#my-svg rect.text{fill:none;stroke-width:0;}#my-svg .icon-shape,#my-svg .image-shape{background-color:#f6f7f9;text-align:center;}#my-svg .icon-shape p,#my-svg .image-shape p{background-color:#f6f7f9;padding:2px;}#my-svg .icon-shape .label rect,#my-svg .image-shape .label rect{opacity:0.5;background-color:#f6f7f9;fill:#f6f7f9;}#my-svg .label-icon{display:inline-block;height:1em;overflow:visible;vertical-align:-0.125em;}#my-svg .node .label-icon path{fill:currentColor;stroke:revert;stroke-width:revert;}#my-svg .node .neo-node{stroke:#1f5f8b;}#my-svg [data-look="neo"].node rect,#my-svg [data-look="neo"].cluster rect,#my-svg [data-look="neo"].node polygon{stroke:url(#my-svg-gradient);filter:drop-shadow( 1px 2px 2px rgba(185,185,185,1));}#my-svg [data-look="neo"].swimlane.cluster rect{filter:none;}#my-svg [data-look="neo"].node path{stroke:url(#my-svg-gradient);stroke-width:1px;}#my-svg [data-look="neo"].node .outer-path{filter:drop-shadow( 1px 2px 2px rgba(185,185,185,1));}#my-svg [data-look="neo"].node .neo-line path{stroke:#1f5f8b;filter:none;}#my-svg [data-look="neo"].node circle{stroke:url(#my-svg-gradient);filter:drop-shadow( 1px 2px 2px rgba(185,185,185,1));}#my-svg [data-look="neo"].node circle .state-start{fill:#000000;}#my-svg [data-look="neo"].icon-shape .icon{fill:url(#my-svg-gradient);filter:drop-shadow( 1px 2px 2px rgba(185,185,185,1));}#my-svg [data-look="neo"].icon-shape .icon-neo path{stroke:url(#my-svg-gradient);filter:drop-shadow( 1px 2px 2px rgba(185,185,185,1));}#my-svg :root{--mermaid-font-family:"trebuchet ms",verdana,arial,sans-serif;}</style><g><marker id="my-svg_flowchart-v2-pointEnd" class="marker flowchart-v2" viewBox="0 0 10 10" refX="5" refY="5" markerUnits="userSpaceOnUse" markerWidth="8" markerHeight="8" orient="auto"><path d="M 0 0 L 10 5 L 0 10 z" class="arrowMarkerPath" style="stroke-width: 1; stroke-dasharray: 1, 0;"/></marker><marker id="my-svg_flowchart-v2-pointStart" class="marker flowchart-v2" viewBox="0 0 10 10" refX="4.5" refY="5" markerUnits="userSpaceOnUse" markerWidth="8" markerHeight="8" orient="auto"><path d="M 0 5 L 10 10 L 10 0 z" class="arrowMarkerPath" style="stroke-width: 1; stroke-dasharray: 1, 0;"/></marker><marker id="my-svg_flowchart-v2-pointEnd-margin" class="marker flowchart-v2" viewBox="0 0 11.5 14" refX="11.5" refY="7" markerUnits="userSpaceOnUse" markerWidth="10.5" markerHeight="14" orient="auto"><path d="M 0 0 L 11.5 7 L 0 14 z" class="arrowMarkerPath" style="stroke-width: 0; stroke-dasharray: 1, 0;"/></marker><marker id="my-svg_flowchart-v2-pointStart-margin" class="marker flowchart-v2" viewBox="0 0 11.5 14" refX="1" refY="7" markerUnits="userSpaceOnUse" markerWidth="11.5" markerHeight="14" orient="auto"><polygon points="0,7 11.5,14 11.5,0" class="arrowMarkerPath" style="stroke-width: 0; stroke-dasharray: 1, 0;"/></marker><marker id="my-svg_flowchart-v2-circleEnd" class="marker flowchart-v2" viewBox="0 0 10 10" refX="11" refY="5" markerUnits="userSpaceOnUse" markerWidth="11" markerHeight="11" orient="auto"><circle cx="5" cy="5" r="5" class="arrowMarkerPath" style="stroke-width: 1; stroke-dasharray: 1, 0;"/></marker><marker id="my-svg_flowchart-v2-circleStart" class="marker flowchart-v2" viewBox="0 0 10 10" refX="-1" refY="5" markerUnits="userSpaceOnUse" markerWidth="11" markerHeight="11" orient="auto"><circle cx="5" cy="5" r="5" class="arrowMarkerPath" style="stroke-width: 1; stroke-dasharray: 1, 0;"/></marker><marker id="my-svg_flowchart-v2-circleEnd-margin" class="marker flowchart-v2" viewBox="0 0 10 10" refY="5" refX="12.25" markerUnits="userSpaceOnUse" markerWidth="14" markerHeight="14" orient="auto"><circle cx="5" cy="5" r="5" class="arrowMarkerPath" style="stroke-width: 0; stroke-dasharray: 1, 0;"/></marker><marker id="my-svg_flowchart-v2-circleStart-margin" class="marker flowchart-v2" viewBox="0 0 10 10" refX="-2" refY="5" markerUnits="userSpaceOnUse" markerWidth="14" markerHeight="14" orient="auto"><circle cx="5" cy="5" r="5" class="arrowMarkerPath" style="stroke-width: 0; stroke-dasharray: 1, 0;"/></marker><marker id="my-svg_flowchart-v2-crossEnd" class="marker cross flowchart-v2" viewBox="0 0 11 11" refX="12" refY="5.2" markerUnits="userSpaceOnUse" markerWidth="11" markerHeight="11" orient="auto"><path d="M 1,1 l 9,9 M 10,1 l -9,9" class="arrowMarkerPath" style="stroke-width: 2; stroke-dasharray: 1, 0;"/></marker><marker id="my-svg_flowchart-v2-crossStart" class="marker cross flowchart-v2" viewBox="0 0 11 11" refX="-1" refY="5.2" markerUnits="userSpaceOnUse" markerWidth="11" markerHeight="11" orient="auto"><path d="M 1,1 l 9,9 M 10,1 l -9,9" class="arrowMarkerPath" style="stroke-width: 2; stroke-dasharray: 1, 0;"/></marker><marker id="my-svg_flowchart-v2-crossEnd-margin" class="marker cross flowchart-v2" viewBox="0 0 15 15" refX="17.7" refY="7.5" markerUnits="userSpaceOnUse" markerWidth="12" markerHeight="12" orient="auto"><path d="M 1,1 L 14,14 M 1,14 L 14,1" class="arrowMarkerPath" style="stroke-width: 2.5;"/></marker><marker id="my-svg_flowchart-v2-crossStart-margin" class="marker cross flowchart-v2" viewBox="0 0 15 15" refX="-3.5" refY="7.5" markerUnits="userSpaceOnUse" markerWidth="12" markerHeight="12" orient="auto"><path d="M 1,1 L 14,14 M 1,14 L 14,1" class="arrowMarkerPath" style="stroke-width: 2.5; stroke-dasharray: 1, 0;"/></marker><g class="root"><g class="clusters"/><g class="edges edgePaths"><path d="M185.821533203125,92L221.821533203125,92" id="my-svg-L_pr_ci_0" class="edge-thickness-normal edge-pattern-solid edge-thickness-normal edge-pattern-solid flowchart-link" style="stroke-dasharray: 0 0 32 4; stroke-dashoffset: 0;;" data-edge="true" data-et="edge" data-id="L_pr_ci_0" data-points="W3sieCI6MTg1LjgyMTUzMzIwMzEyNSwieSI6OTJ9LHsieCI6MjI1LjgyMTUzMzIwMzEyNSwieSI6OTJ9XQ==" data-look="neo" marker-end="url(#my-svg_flowchart-v2-pointEnd-margin)"/><path d="M377.821533203125,92L413.821533203125,92" id="my-svg-L_ci_review_0" class="edge-thickness-normal edge-pattern-solid edge-thickness-normal edge-pattern-solid flowchart-link" style="stroke-dasharray: 0 0 32 4; stroke-dashoffset: 0;;" data-edge="true" data-et="edge" data-id="L_ci_review_0" data-points="W3sieCI6Mzc3LjgyMTUzMzIwMzEyNSwieSI6OTJ9LHsieCI6NDE3LjgyMTUzMzIwMzEyNSwieSI6OTJ9XQ==" data-look="neo" marker-end="url(#my-svg_flowchart-v2-pointEnd-margin)"/><path d="M577.821533203125,92L800.805908203125,92" id="my-svg-L_review_local_0" class="edge-thickness-normal edge-pattern-solid edge-thickness-normal edge-pattern-solid flowchart-link" style="stroke-dasharray: 0 0 218.984375 4; stroke-dashoffset: 0;;" data-edge="true" data-et="edge" data-id="L_review_local_0" data-points="W3sieCI6NTc3LjgyMTUzMzIwMzEyNSwieSI6OTJ9LHsieCI6ODA0LjgwNTkwODIwMzEyNSwieSI6OTJ9XQ==" data-look="neo" marker-end="url(#my-svg_flowchart-v2-pointEnd-margin)"/><path d="M956.805908203125,92L992.805908203125,92" id="my-svg-L_local_lab_0" class="edge-thickness-normal edge-pattern-solid edge-thickness-normal edge-pattern-solid flowchart-link" style="stroke-dasharray: 0 0 32 4; stroke-dashoffset: 0;;" data-edge="true" data-et="edge" data-id="L_local_lab_0" data-points="W3sieCI6OTU2LjgwNTkwODIwMzEyNSwieSI6OTJ9LHsieCI6OTk2LjgwNTkwODIwMzEyNSwieSI6OTJ9XQ==" data-look="neo" marker-end="url(#my-svg_flowchart-v2-pointEnd-margin)"/></g><g class="edgeLabels"><g class="edgeLabel" transform="translate(691.313720703125, 91.49999904632568)"><g class="label" data-id="L_review_local_0" transform="translate(0, -9.000000476837158)"><g><rect class="background" style="" x="-73.4921875" y="-0.9999990463256836" width="146.984375" height="19.999999046325684"/><text y="-10.1" text-anchor="middle" style=""><tspan class="text-outer-tspan row" x="0" y="-0.1em" dy="1.1em" text-anchor="middle"><tspan font-style="normal" class="text-inner-tspan" font-weight="normal">operator</tspan><tspan font-style="normal" class="text-inner-tspan" font-weight="normal"> acts</tspan><tspan font-style="normal" class="text-inner-tspan" font-weight="normal"> locally</tspan></tspan></text></g></g></g></g><g class="nodes"><g class="node default" id="my-svg-flowchart-pr-0" data-look="neo" transform="translate(98.9107666015625, 92)"><g class="basic label-container outer-path"><path d="M-59.22499942779541 -27.700000762939453 C-23.884026524833345 -27.700000762939453, 11.45694637812872 -27.700000762939453, 59.22499942779541 -27.700000762939453 C59.22499942779541 -27.700000762939453, 59.22499942779541 -27.700000762939453, 59.22499942779541 -27.700000762939453 C59.76746893073732 -27.68260482183294, 60.30993843367924 -27.665208880726425, 60.99974457014285 -27.64308814055623 C61.521260186059415 -27.59277815630305, 62.04277580197598 -27.542468172049873, 62.76719690401875 -27.47258413957965 C63.26955519033635 -27.391366747694516, 63.77191347665395 -27.31014935580938, 64.52009358866587 -27.189189397522718 C64.9791433598104 -27.08441428283869, 65.43819313095491 -26.979639168154662, 66.25123159561184 -26.79406844416853 C66.68917598748398 -26.664088847477906, 67.12712037935611 -26.534109250787278, 67.95349730745819 -26.288844916267593 C68.47399795567763 -26.097295866267594, 68.99449860389706 -25.905746816267595, 69.61989574926008 -25.675594885666165 C70.19602782185183 -25.42055830748051, 70.77215989444359 -25.16552172929485, 71.24357933237879 -24.956838328281705 C71.8032118010678 -24.664878427828356, 72.3628442697568 -24.372918527375003, 72.81787599269227 -24.135528768981306 C73.35400418626087 -23.81052470740104, 73.89013237982947 -23.485520645820774, 74.33631660753771 -23.21504114491447 C74.79071084347686 -22.898075396332764, 75.24510507941599 -22.581109647751063, 75.79266157872422 -22.19915793717247 C76.24736006539429 -21.836547994087987, 76.70205855206436 -21.473938051003508, 77.18092647238016 -21.09205362776219 C77.44773115676709 -20.84974867266709, 77.71453584115403 -20.607443717571993, 78.49540661027565 -19.898277545764113 C78.89452021918937 -19.486159976724007, 79.2936338281031 -19.0740424076839, 79.73070051156894 -18.622735173163356 C80.01800898816536 -18.285246288237747, 80.3053174647618 -17.947757403312135, 80.88173208864993 -17.27066798717189 C81.11674295419218 -16.95577483727557, 81.35175381973443 -16.64088168737925, 81.94377150587286 -15.847631921874477 C82.18695513133112 -15.47403656922374, 82.43013875678938 -15.100441216573003, 82.91245461546565 -14.35947453770369 C83.12124383971253 -13.988748127851801, 83.33003306395943 -13.618021717999913, 83.7838008907491 -12.812310992559848 C84.0367867682821 -12.286980404831972, 84.28977264581508 -11.761649817104095, 84.55422978297489 -11.212498913315498 C84.79525948906169 -10.617150879288737, 85.0362891951485 -10.021802845261977, 85.22057543456836 -9.56661227096286 C85.34632074563598 -9.187887428821721, 85.47206605670361 -8.809162586680584, 85.78009968831644 -7.881414366756927 C85.87625244902898 -7.514742217289915, 85.97240520974152 -7.148070067822902, 86.2305033390429 -6.163830040359912 C86.34825008230418 -5.5592253994961975, 86.46599682556547 -4.954620758632482, 86.5699355815356 -4.4209172141896715 C86.620042604269 -4.0322970406202305, 86.6701496270024 -3.643676867050789, 86.79700161590219 -2.6598378909025446 C86.83333179145909 -2.093966081414076, 86.86966196701599 -1.5280942719256072, 86.91076837910194 -0.8878287231882611 C86.91076837910194 -0.26507646752819836, 86.91076837910194 0.3576757881318644, 86.91076837910194 0.8878287231882545 C86.87682682290693 1.416495858056336, 86.84288526671195 1.9451629929244174, 86.79700161590219 2.659837890902526 C86.72839832678405 3.1919114540511613, 86.6597950376659 3.723985017199796, 86.56993558153562 4.420917214189652 C86.46983683445829 4.934903124553999, 86.36973808738098 5.448889034918347, 86.2305033390429 6.163830040359906 C86.12574558679461 6.563316751979648, 86.02098783454632 6.96280346359939, 85.78009968831644 7.88141436675691 C85.61483530100831 8.37916437002474, 85.44957091370019 8.876914373292568, 85.22057543456836 9.566612270962843 C85.00678944409293 10.094667800708113, 84.79300345361749 10.62272333045338, 84.55422978297489 11.21249891331549 C84.31977763792177 11.699343808990562, 84.08532549286866 12.186188704665634, 83.7838008907491 12.81231099255984 C83.47709340093206 13.356901198231098, 83.17038591111502 13.901491403902353, 82.91245461546565 14.359474537703683 C82.700927647657 14.684436763201782, 82.48940067984836 15.009398988699882, 81.94377150587286 15.847631921874463 C81.58504545513443 16.328292149248423, 81.22631940439602 16.808952376622386, 80.88173208864993 17.270667987171883 C80.49151730917256 17.729036470995947, 80.10130252969522 18.18740495482001, 79.73070051156895 18.62273517316334 C79.25319561861333 19.115798179020818, 78.77569072565771 19.6088611848783, 78.49540661027565 19.89827754576411 C78.0860374698112 20.270055767820008, 77.67666832934674 20.641833989875906, 77.18092647238018 21.092053627762173 C76.87723318936216 21.33424093935138, 76.57353990634414 21.57642825094058, 75.79266157872422 22.199157937172465 C75.47442854223675 22.421143527340003, 75.1561955057493 22.643129117507545, 74.33631660753773 23.21504114491446 C74.02825487607213 23.401789976900588, 73.72019314460653 23.588538808886714, 72.81787599269227 24.135528768981303 C72.31600369087347 24.397355227375616, 71.81413138905468 24.65918168576993, 71.2435793323788 24.9568383282817 C70.77417208485531 25.164630992289087, 70.30476483733183 25.372423656296473, 69.61989574926008 25.675594885666165 C69.01088460552177 25.899716616199164, 68.40187346178345 26.123838346732164, 67.9534973074582 26.28884491626759 C67.37727071934539 26.459865942944393, 66.80104413123257 26.630886969621194, 66.25123159561188 26.794068444168524 C65.75273707472165 26.907846565580964, 65.25424255383142 27.021624686993405, 64.52009358866589 27.189189397522718 C63.867778570847456 27.294650630825085, 63.215463553029025 27.40011186412745, 62.767196904018775 27.472584139579645 C62.10513348725383 27.536452601147207, 61.443070070488886 27.60032106271477, 60.99974457014285 27.64308814055623 C60.508334074267985 27.658846718686434, 60.01692357839312 27.674605296816633, 59.22499942779542 27.700000762939453 C59.22499942779542 27.700000762939453, 59.22499942779541 27.700000762939453, 59.22499942779541 27.700000762939453 C19.32881362535013 27.700000762939453, -20.56737217709515 27.700000762939453, -59.2249994277954 27.700000762939453 C-59.89679882710542 27.678457463781786, -60.56859822641544 27.65691416462412, -60.999744570142845 27.64308814055623 C-61.60551699348949 27.584650003423906, -62.21128941683613 27.526211866291586, -62.76719690401876 27.472584139579645 C-63.38593246314065 27.372551772746746, -64.00466802226254 27.272519405913844, -64.52009358866589 27.189189397522718 C-64.91211790400197 27.099712405744988, -65.30414221933806 27.01023541396726, -66.25123159561184 26.79406844416853 C-66.78754449167049 26.634893591782163, -67.32385738772915 26.47571873939579, -67.95349730745818 26.2888449162676 C-68.59656286886133 26.052190845238353, -69.23962843026447 25.81553677420911, -69.61989574926008 25.675594885666165 C-69.95354452018891 25.527898472115105, -70.28719329111776 25.38020205856405, -71.24357933237879 24.95683832828171 C-71.83338073184021 24.64913931596851, -72.42318213130163 24.34144030365531, -72.81787599269225 24.13552876898131 C-73.4157039367898 23.77312195604242, -74.01353188088734 23.41071514310353, -74.3363166075377 23.215041144914476 C-74.89645869831169 22.824310270550832, -75.4566007890857 22.433579396187188, -75.7926615787242 22.199157937172473 C-76.19607661675194 21.877445179670378, -76.59949165477967 21.555732422168283, -77.18092647238016 21.092053627762194 C-77.47331650251603 20.82651273860907, -77.76570653265189 20.560971849455946, -78.49540661027564 19.898277545764127 C-78.8662138497956 19.515388627119222, -79.23702108931556 19.13249970847432, -79.73070051156894 18.62273517316335 C-80.03933097146607 18.26020027339752, -80.34796143136319 17.89766537363169, -80.88173208864991 17.27066798717189 C-81.26878245085294 16.752055762833233, -81.65583281305595 16.233443538494576, -81.94377150587286 15.84763192187448 C-82.18683159125 15.474226359963508, -82.42989167662712 15.100820798052533, -82.91245461546563 14.359474537703703 C-83.10861402914158 14.01117363542754, -83.3047734428175 13.662872733151374, -83.78380089074909 12.81231099255985 C-83.9963072090963 12.37103707560508, -84.2088135274435 11.929763158650312, -84.55422978297489 11.212498913315502 C-84.73549424573551 10.764772185786795, -84.91675870849612 10.317045458258088, -85.22057543456836 9.566612270962864 C-85.3982926205755 9.031356422097632, -85.57600980658265 8.4961005732324, -85.78009968831644 7.88141436675692 C-85.94507762141725 7.252282005955012, -86.11005555451806 6.623149645153103, -86.23050333904288 6.163830040359915 C-86.3209489182969 5.699411106570423, -86.41139449755094 5.234992172780931, -86.5699355815356 4.420917214189674 C-86.65145297156734 3.7886844345329473, -86.73297036159907 3.1564516548762205, -86.79700161590219 2.6598378909025606 C-86.82961675544936 2.1518307659885303, -86.86223189499654 1.6438236410745, -86.91076837910194 0.8878287231882646 C-86.91076837910194 0.2298725406340688, -86.91076837910194 -0.42808364192012693, -86.91076837910194 -0.8878287231882511 C-86.88428769256257 -1.3002867908644626, -86.85780700602318 -1.7127448585406742, -86.79700161590219 -2.6598378909025224 C-86.72705353969367 -3.2023413571658184, -86.65710546348517 -3.7448448234291143, -86.56993558153562 -4.420917214189662 C-86.48122261072655 -4.876439569801178, -86.39250963991749 -5.3319619254126955, -86.2305033390429 -6.163830040359902 C-86.06835887694521 -6.782157148192756, -85.90621441484754 -7.400484256025608, -85.78009968831644 -7.881414366756906 C-85.56385845386419 -8.532698511565235, -85.34761721941193 -9.183982656373564, -85.22057543456836 -9.566612270962828 C-85.0455187662507 -9.999005626197894, -84.87046209793304 -10.431398981432958, -84.55422978297489 -11.212498913315487 C-84.28119219755816 -11.779467301501768, -84.00815461214142 -12.346435689688047, -83.7838008907491 -12.812310992559837 C-83.49500819288689 -13.325091671045918, -83.20621549502467 -13.837872349531999, -82.91245461546565 -14.359474537703692 C-82.54665724074975 -14.921437535615961, -82.18085986603386 -15.483400533528231, -81.94377150587286 -15.847631921874472 C-81.5491603833809 -16.37637487620089, -81.15454926088893 -16.905117830527313, -80.88173208864993 -17.270667987171883 C-80.50312385414631 -17.71540276283868, -80.12451561964268 -18.160137538505477, -79.73070051156895 -18.62273517316334 C-79.33530548443946 -19.031013001209985, -78.93991045730998 -19.439290829256635, -78.49540661027567 -19.8982775457641 C-78.13049797449032 -20.229677913830916, -77.765589338705 -20.561078281897732, -77.1809264723802 -21.09205362776217 C-76.87097392015458 -21.339232539978273, -76.56102136792897 -21.586411452194376, -75.79266157872422 -22.199157937172462 C-75.46843681854487 -22.425323094409915, -75.14421205836554 -22.65148825164737, -74.33631660753773 -23.215041144914455 C-73.93399012555348 -23.458933822626147, -73.53166364356925 -23.70282650033784, -72.81787599269227 -24.1355287689813 C-72.4571457498998 -24.323721505587386, -72.09641550710731 -24.511914242193477, -71.2435793323788 -24.9568383282817 C-70.77432792069715 -25.164562008384614, -70.30507650901549 -25.372285688487526, -69.6198957492601 -25.67559488566616 C-69.11688932040583 -25.86070590122499, -68.61388289155157 -26.045816916783814, -67.95349730745822 -26.28884491626759 C-67.60996695932069 -26.390802920367214, -67.26643661118315 -26.49276092446684, -66.25123159561188 -26.79406844416852 C-65.62878895521993 -26.936136915020157, -65.006346314828 -27.078205385871797, -64.5200935886659 -27.189189397522714 C-63.881978989582194 -27.292354817249944, -63.24386439049849 -27.395520236977173, -62.767196904018775 -27.472584139579645 C-62.0882893347103 -27.538077536285023, -61.40938176540184 -27.6035709329904, -60.99974457014286 -27.64308814055623 C-60.32567819688194 -27.664704137156104, -59.65161182362102 -27.68632013375598, -59.22499942779542 -27.700000762939453 C-59.22499942779542 -27.700000762939453, -59.22499942779541 -27.700000762939453, -59.22499942779541 -27.700000762939453" stroke="none" stroke-width="0" fill="#eef4fa" style=""/><path d="M-59.22499942779541 -27.700000762939453 C-13.34565903556534 -27.700000762939453, 32.53368135666473 -27.700000762939453, 59.22499942779541 -27.700000762939453 M-59.22499942779541 -27.700000762939453 C-25.27435662800071 -27.700000762939453, 8.67628617179399 -27.700000762939453, 59.22499942779541 -27.700000762939453 M59.22499942779541 -27.700000762939453 C59.22499942779541 -27.700000762939453, 59.22499942779541 -27.700000762939453, 59.22499942779541 -27.700000762939453 M59.22499942779541 -27.700000762939453 C59.22499942779541 -27.700000762939453, 59.22499942779541 -27.700000762939453, 59.22499942779541 -27.700000762939453 M59.22499942779541 -27.700000762939453 C59.678719694760574 -27.685450837090805, 60.13243996172574 -27.670900911242157, 60.99974457014285 -27.64308814055623 M59.22499942779541 -27.700000762939453 C59.744383834914856 -27.68334511592355, 60.26376824203431 -27.666689468907652, 60.99974457014285 -27.64308814055623 M60.99974457014285 -27.64308814055623 C61.576698549829594 -27.58743008402453, 62.15365252951634 -27.531772027492828, 62.76719690401875 -27.47258413957965 M60.99974457014285 -27.64308814055623 C61.6859517492251 -27.576890559275043, 62.372158928307336 -27.510692977993855, 62.76719690401875 -27.47258413957965 M62.76719690401875 -27.47258413957965 C63.37729019921508 -27.373948986956474, 63.98738349441141 -27.2753138343333, 64.52009358866587 -27.189189397522718 M62.76719690401875 -27.47258413957965 C63.11928880069886 -27.415660652237847, 63.47138069737897 -27.35873716489605, 64.52009358866587 -27.189189397522718 M64.52009358866587 -27.189189397522718 C65.10058757526626 -27.056695433158456, 65.68108156186663 -26.924201468794198, 66.25123159561184 -26.79406844416853 M64.52009358866587 -27.189189397522718 C64.90839519346925 -27.100562090131124, 65.29669679827262 -27.01193478273953, 66.25123159561184 -26.79406844416853 M66.25123159561184 -26.79406844416853 C66.82037891836377 -26.625148506291016, 67.38952624111572 -26.456228568413504, 67.95349730745819 -26.288844916267593 M66.25123159561184 -26.79406844416853 C66.85946882360399 -26.613546827602825, 67.46770605159612 -26.433025211037116, 67.95349730745819 -26.288844916267593 M67.95349730745819 -26.288844916267593 C68.4156660649554 -26.118762541267458, 68.87783482245261 -25.948680166267323, 69.61989574926008 -25.675594885666165 M67.95349730745819 -26.288844916267593 C68.32409624731774 -26.15246108062023, 68.6946951871773 -26.01607724497287, 69.61989574926008 -25.675594885666165 M69.61989574926008 -25.675594885666165 C70.01049901652762 -25.502686406081068, 70.40110228379517 -25.329777926495968, 71.24357933237879 -24.956838328281705 M69.61989574926008 -25.675594885666165 C70.26882913958447 -25.38833132369463, 70.91776252990887 -25.101067761723094, 71.24357933237879 -24.956838328281705 M71.24357933237879 -24.956838328281705 C71.79275790443498 -24.670332219005655, 72.34193647649117 -24.383826109729604, 72.81787599269227 -24.135528768981306 M71.24357933237879 -24.956838328281705 C71.61047598314916 -24.765428580583322, 71.97737263391954 -24.57401883288494, 72.81787599269227 -24.135528768981306 M72.81787599269227 -24.135528768981306 C73.23794164793584 -23.880882500192847, 73.65800730317943 -23.62623623140439, 74.33631660753771 -23.21504114491447 M72.81787599269227 -24.135528768981306 C73.25712856979389 -23.86925127540763, 73.69638114689552 -23.602973781833956, 74.33631660753771 -23.21504114491447 M74.33631660753771 -23.21504114491447 C74.74936244900731 -22.926918246371578, 75.16240829047689 -22.638795347828687, 75.79266157872422 -22.19915793717247 M74.33631660753771 -23.21504114491447 C74.88591252969755 -22.831666821239782, 75.43550845185739 -22.448292497565095, 75.79266157872422 -22.19915793717247 M75.79266157872422 -22.19915793717247 C76.28270900516983 -21.808358155291785, 76.77275643161545 -21.417558373411104, 77.18092647238016 -21.09205362776219 M75.79266157872422 -22.19915793717247 C76.18754551657265 -21.884248505041246, 76.58242945442109 -21.569339072910026, 77.18092647238016 -21.09205362776219 M77.18092647238016 -21.09205362776219 C77.46837595356047 -20.830999614450747, 77.75582543474076 -20.569945601139302, 78.49540661027565 -19.898277545764113 M77.18092647238016 -21.09205362776219 C77.54254569333476 -20.763640619211507, 77.90416491428935 -20.43522761066082, 78.49540661027565 -19.898277545764113 M78.49540661027565 -19.898277545764113 C78.9635361512894 -19.41489536051732, 79.43166569230316 -18.931513175270528, 79.73070051156894 -18.622735173163356 M78.49540661027565 -19.898277545764113 C78.82650826295374 -19.556387905422756, 79.15760991563182 -19.214498265081396, 79.73070051156894 -18.622735173163356 M79.73070051156894 -18.622735173163356 C80.12861144982071 -18.155326343319032, 80.52652238807248 -17.68791751347471, 80.88173208864993 -17.27066798717189 M79.73070051156894 -18.622735173163356 C80.1469932416196 -18.13373404471847, 80.56328597167025 -17.64473291627358, 80.88173208864993 -17.27066798717189 M80.88173208864993 -17.27066798717189 C81.24409734962394 -16.78513154962111, 81.60646261059796 -16.299595112070325, 81.94377150587286 -15.847631921874477 M80.88173208864993 -17.27066798717189 C81.09466200664875 -16.98536129536807, 81.30759192464755 -16.70005460356425, 81.94377150587286 -15.847631921874477 M81.94377150587286 -15.847631921874477 C82.1458878581863 -15.537126928881099, 82.34800421049974 -15.226621935887719, 82.91245461546565 -14.35947453770369 M81.94377150587286 -15.847631921874477 C82.23825778015433 -15.395221923941156, 82.53274405443581 -14.942811926007835, 82.91245461546565 -14.35947453770369 M82.91245461546565 -14.35947453770369 C83.13256813667216 -13.96864069189057, 83.35268165787869 -13.57780684607745, 83.7838008907491 -12.812310992559848 M82.91245461546565 -14.35947453770369 C83.23359258496419 -13.789261554113422, 83.55473055446272 -13.219048570523153, 83.7838008907491 -12.812310992559848 M83.7838008907491 -12.812310992559848 C84.00707270617363 -12.348682290579287, 84.23034452159814 -11.885053588598728, 84.55422978297489 -11.212498913315498 M83.7838008907491 -12.812310992559848 C84.01092445382788 -12.34068405416103, 84.23804801690665 -11.869057115762216, 84.55422978297489 -11.212498913315498 M84.55422978297489 -11.212498913315498 C84.80830696435821 -10.58492336305058, 85.06238414574152 -9.95734781278566, 85.22057543456836 -9.56661227096286 M84.55422978297489 -11.212498913315498 C84.72496725059831 -10.790774067301268, 84.89570471822174 -10.369049221287039, 85.22057543456836 -9.56661227096286 M85.22057543456836 -9.56661227096286 C85.4417683083656 -8.900414577384009, 85.66296118216285 -8.234216883805155, 85.78009968831644 -7.881414366756927 M85.22057543456836 -9.56661227096286 C85.38262663587463 -9.078539871980961, 85.5446778371809 -8.590467472999062, 85.78009968831644 -7.881414366756927 M85.78009968831644 -7.881414366756927 C85.95410598385288 -7.217852947070955, 86.12811227938931 -6.554291527384981, 86.2305033390429 -6.163830040359912 M85.78009968831644 -7.881414366756927 C85.89798857538653 -7.431852946991792, 86.01587746245663 -6.982291527226656, 86.2305033390429 -6.163830040359912 M86.2305033390429 -6.163830040359912 C86.30301759759895 -5.791484648568507, 86.37553185615502 -5.419139256777101, 86.5699355815356 -4.4209172141896715 M86.2305033390429 -6.163830040359912 C86.35365354151031 -5.531479778494195, 86.47680374397774 -4.899129516628479, 86.5699355815356 -4.4209172141896715 M86.5699355815356 -4.4209172141896715 C86.62444034742403 -3.998189013142512, 86.67894511331244 -3.5754608120953524, 86.79700161590219 -2.6598378909025446 M86.5699355815356 -4.4209172141896715 C86.63828973491412 -3.890775898640209, 86.70664388829263 -3.3606345830907465, 86.79700161590219 -2.6598378909025446 M86.79700161590219 -2.6598378909025446 C86.83953211429225 -1.9973910484770376, 86.8820626126823 -1.3349442060515306, 86.91076837910194 -0.8878287231882611 M86.79700161590219 -2.6598378909025446 C86.84027376017369 -1.985839315227972, 86.88354590444517 -1.3118407395533997, 86.91076837910194 -0.8878287231882611 M86.91076837910194 -0.8878287231882611 C86.91076837910194 -0.2540113194990038, 86.91076837910194 0.3798060841902535, 86.91076837910194 0.8878287231882545 M86.91076837910194 -0.8878287231882611 C86.91076837910194 -0.23786830249075785, 86.91076837910194 0.4120921182067454, 86.91076837910194 0.8878287231882545 M86.91076837910194 0.8878287231882545 C86.86815590367692 1.5515524241038658, 86.8255434282519 2.215276125019477, 86.79700161590219 2.659837890902526 M86.91076837910194 0.8878287231882545 C86.8678122198673 1.5569055768552045, 86.82485606063267 2.225982430522155, 86.79700161590219 2.659837890902526 M86.79700161590219 2.659837890902526 C86.73849118780716 3.1136332170167513, 86.67998075971212 3.567428543130977, 86.56993558153562 4.420917214189652 M86.79700161590219 2.659837890902526 C86.74037092850513 3.099054319360105, 86.68374024110805 3.538270747817684, 86.56993558153562 4.420917214189652 M86.56993558153562 4.420917214189652 C86.4808599544764 4.87830173299831, 86.39178432741717 5.335686251806967, 86.2305033390429 6.163830040359906 M86.56993558153562 4.420917214189652 C86.48406170473783 4.861861422096054, 86.39818782794002 5.3028056300024575, 86.2305033390429 6.163830040359906 M86.2305033390429 6.163830040359906 C86.12985024479265 6.547663912063094, 86.0291971505424 6.931497783766283, 85.78009968831644 7.88141436675691 M86.2305033390429 6.163830040359906 C86.13436688273731 6.530440014056859, 86.03823042643171 6.897049987753812, 85.78009968831644 7.88141436675691 M85.78009968831644 7.88141436675691 C85.60706110602348 8.402579006669276, 85.43402252373053 8.923743646581642, 85.22057543456836 9.566612270962843 M85.78009968831644 7.88141436675691 C85.58100442564556 8.481057576399378, 85.38190916297467 9.080700786041847, 85.22057543456836 9.566612270962843 M85.22057543456836 9.566612270962843 C85.05264921497552 9.981393279989758, 84.88472299538267 10.396174289016676, 84.55422978297489 11.21249891331549 M85.22057543456836 9.566612270962843 C84.97762238610751 10.166710997838786, 84.73466933764666 10.766809724714728, 84.55422978297489 11.21249891331549 M84.55422978297489 11.21249891331549 C84.33570740132994 11.666265314431154, 84.11718501968501 12.120031715546816, 83.7838008907491 12.81231099255984 M84.55422978297489 11.21249891331549 C84.35804740447128 11.619875819908676, 84.16186502596767 12.027252726501862, 83.7838008907491 12.81231099255984 M83.7838008907491 12.81231099255984 C83.51245032212546 13.294121404375717, 83.24109975350181 13.775931816191594, 82.91245461546565 14.359474537703683 M83.7838008907491 12.81231099255984 C83.59055048636678 13.155446654266052, 83.39730008198447 13.498582315972264, 82.91245461546565 14.359474537703683 M82.91245461546565 14.359474537703683 C82.63137928459732 14.791281725211881, 82.35030395372898 15.223088912720081, 81.94377150587286 15.847631921874463 M82.91245461546565 14.359474537703683 C82.61191876414587 14.821178310506742, 82.31138291282608 15.282882083309802, 81.94377150587286 15.847631921874463 M81.94377150587286 15.847631921874463 C81.69391510026674 16.182416742999855, 81.44405869466061 16.517201564125248, 80.88173208864993 17.270667987171883 M81.94377150587286 15.847631921874463 C81.55029141861968 16.374859392020348, 81.1568113313665 16.902086862166232, 80.88173208864993 17.270667987171883 M80.88173208864993 17.270667987171883 C80.61489674210817 17.584107968581176, 80.34806139556642 17.897547949990464, 79.73070051156895 18.62273517316334 M80.88173208864993 17.270667987171883 C80.51435128512402 17.702214383553326, 80.14697048159813 18.133760779934768, 79.73070051156895 18.62273517316334 M79.73070051156895 18.62273517316334 C79.24299258772092 19.126333646101646, 78.7552846638729 19.62993211903995, 78.49540661027565 19.89827754576411 M79.73070051156895 18.62273517316334 C79.47224971903012 18.889606835664374, 79.21379892649128 19.15647849816541, 78.49540661027565 19.89827754576411 M78.49540661027565 19.89827754576411 C78.1791552145583 20.185488695801205, 77.86290381884095 20.472699845838296, 77.18092647238018 21.092053627762173 M78.49540661027565 19.89827754576411 C77.98171076639454 20.364802519529707, 77.46801492251342 20.831327493295305, 77.18092647238018 21.092053627762173 M77.18092647238018 21.092053627762173 C76.83519622851497 21.367764296976503, 76.48946598464977 21.64347496619083, 75.79266157872422 22.199157937172465 M77.18092647238018 21.092053627762173 C76.67181690725624 21.498054957974006, 76.16270734213231 21.904056288185835, 75.79266157872422 22.199157937172465 M75.79266157872422 22.199157937172465 C75.44924891736106 22.438707743644898, 75.1058362559979 22.67825755011733, 74.33631660753773 23.21504114491446 M75.79266157872422 22.199157937172465 C75.44176921324896 22.443925261442324, 75.0908768477737 22.688692585712182, 74.33631660753773 23.21504114491446 M74.33631660753773 23.21504114491446 C73.93096989566091 23.46076470373587, 73.52562318378409 23.706488262557283, 72.81787599269227 24.135528768981303 M74.33631660753773 23.21504114491446 C73.84023042958346 23.515771501316312, 73.3441442516292 23.816501857718162, 72.81787599269227 24.135528768981303 M72.81787599269227 24.135528768981303 C72.45924204038185 24.322627872185638, 72.10060808807144 24.50972697538997, 71.2435793323788 24.9568383282817 M72.81787599269227 24.135528768981303 C72.25599814018992 24.42866008473184, 71.69412028768757 24.72179140048237, 71.2435793323788 24.9568383282817 M71.2435793323788 24.9568383282817 C70.86589017929961 25.124030112599204, 70.48820102622042 25.291221896916706, 69.61989574926008 25.675594885666165 M71.2435793323788 24.9568383282817 C70.88249289136733 25.116680584468778, 70.52140645035585 25.276522840655854, 69.61989574926008 25.675594885666165 M69.61989574926008 25.675594885666165 C68.95984021583071 25.91850142345464, 68.29978468240134 26.161407961243114, 67.9534973074582 26.28884491626759 M69.61989574926008 25.675594885666165 C69.17592829868909 25.838979011466414, 68.73196084811809 26.002363137266666, 67.9534973074582 26.28884491626759 M67.9534973074582 26.28884491626759 C67.35275158223739 26.46714309413447, 66.75200585701656 26.645441272001353, 66.25123159561188 26.794068444168524 M67.9534973074582 26.28884491626759 C67.4192896223696 26.447394953088526, 66.88508193728102 26.605944989909464, 66.25123159561188 26.794068444168524 M66.25123159561188 26.794068444168524 C65.77548730748947 26.902653973410853, 65.29974301936706 27.011239502653183, 64.52009358866589 27.189189397522718 M66.25123159561188 26.794068444168524 C65.76560237484829 26.904910144780988, 65.27997315408469 27.015751845393453, 64.52009358866589 27.189189397522718 M64.52009358866589 27.189189397522718 C64.06590569097806 27.262618974541134, 63.611717793290225 27.33604855155955, 62.767196904018775 27.472584139579645 M64.52009358866589 27.189189397522718 C64.03662405434478 27.267353002469516, 63.55315452002369 27.345516607416315, 62.767196904018775 27.472584139579645 M62.767196904018775 27.472584139579645 C62.13249806365122 27.53381277337287, 61.497799223283664 27.595041407166093, 60.99974457014285 27.64308814055623 M62.767196904018775 27.472584139579645 C62.40486094914062 27.507538253374, 62.042524994262465 27.542492367168354, 60.99974457014285 27.64308814055623 M60.99974457014285 27.64308814055623 C60.52248268188066 27.658393000378886, 60.045220793618476 27.673697860201546, 59.22499942779542 27.700000762939453 M60.99974457014285 27.64308814055623 C60.54633180792075 27.65762820532629, 60.09291904569864 27.67216827009635, 59.22499942779542 27.700000762939453 M59.22499942779542 27.700000762939453 C59.22499942779542 27.700000762939453, 59.22499942779541 27.700000762939453, 59.22499942779541 27.700000762939453 M59.22499942779542 27.700000762939453 C59.22499942779542 27.700000762939453, 59.22499942779541 27.700000762939453, 59.22499942779541 27.700000762939453 M59.22499942779541 27.700000762939453 C29.5593512683207 27.700000762939453, -0.10629689115400964 27.700000762939453, -59.2249994277954 27.700000762939453 M59.22499942779541 27.700000762939453 C16.12552212882668 27.700000762939453, -26.973955170142048 27.700000762939453, -59.2249994277954 27.700000762939453 M-59.2249994277954 27.700000762939453 C-59.858604532927345 27.679682280455392, -60.49220963805929 27.659363797971334, -60.999744570142845 27.64308814055623 M-59.2249994277954 27.700000762939453 C-59.795143510350215 27.681717351930054, -60.36528759290503 27.663433940920658, -60.999744570142845 27.64308814055623 M-60.999744570142845 27.64308814055623 C-61.557021112404264 27.58932834274737, -62.114297654665684 27.535568544938506, -62.76719690401876 27.472584139579645 M-60.999744570142845 27.64308814055623 C-61.36319654977493 27.60802636519608, -61.72664852940702 27.57296458983593, -62.76719690401876 27.472584139579645 M-62.76719690401876 27.472584139579645 C-63.45421854245653 27.361511809009407, -64.1412401808943 27.25043947843917, -64.52009358866589 27.189189397522718 M-62.76719690401876 27.472584139579645 C-63.365835777577985 27.375800849016393, -63.96447465113721 27.279017558453138, -64.52009358866589 27.189189397522718 M-64.52009358866589 27.189189397522718 C-65.18377313540442 27.037708871893436, -65.84745268214294 26.88622834626415, -66.25123159561184 26.79406844416853 M-64.52009358866589 27.189189397522718 C-65.05023428135286 27.068188243908242, -65.58037497403983 26.947187090293767, -66.25123159561184 26.79406844416853 M-66.25123159561184 26.79406844416853 C-66.63088079927137 26.68139055334172, -67.01053000293088 26.568712662514912, -67.95349730745818 26.2888449162676 M-66.25123159561184 26.79406844416853 C-66.63683900302696 26.67962218974231, -67.02244641044207 26.56517593531609, -67.95349730745818 26.2888449162676 M-67.95349730745818 26.2888449162676 C-68.28886391308474 26.165426905302105, -68.62423051871131 26.04200889433661, -69.61989574926008 25.675594885666165 M-67.95349730745818 26.2888449162676 C-68.508499237091 26.084599075781124, -69.06350116672381 25.88035323529465, -69.61989574926008 25.675594885666165 M-69.61989574926008 25.675594885666165 C-70.02341996234051 25.49696668665594, -70.42694417542094 25.31833848764572, -71.24357933237879 24.95683832828171 M-69.61989574926008 25.675594885666165 C-70.17280308127305 25.430839211197284, -70.72571041328601 25.186083536728407, -71.24357933237879 24.95683832828171 M-71.24357933237879 24.95683832828171 C-71.8081743838077 24.66228945159164, -72.37276943523659 24.367740574901568, -72.81787599269225 24.13552876898131 M-71.24357933237879 24.95683832828171 C-71.82575273387862 24.65311883761911, -72.40792613537843 24.34939934695651, -72.81787599269225 24.13552876898131 M-72.81787599269225 24.13552876898131 C-73.21128040409688 23.897044702886884, -73.60468481550151 23.658560636792462, -74.3363166075377 23.215041144914476 M-72.81787599269225 24.13552876898131 C-73.19553862398014 23.90658746250262, -73.57320125526803 23.677646156023936, -74.3363166075377 23.215041144914476 M-74.3363166075377 23.215041144914476 C-74.82099855152289 22.8769480023336, -75.30568049550807 22.53885485975272, -75.7926615787242 22.199157937172473 M-74.3363166075377 23.215041144914476 C-74.81741021225172 22.879451072472467, -75.29850381696572 22.54386100003046, -75.7926615787242 22.199157937172473 M-75.7926615787242 22.199157937172473 C-76.1746730139423 21.89451398333727, -76.5566844491604 21.589870029502066, -77.18092647238016 21.092053627762194 M-75.7926615787242 22.199157937172473 C-76.1196315615325 21.938408076919522, -76.4466015443408 21.677658216666572, -77.18092647238016 21.092053627762194 M-77.18092647238016 21.092053627762194 C-77.4712044632595 20.82843083678035, -77.76148245413883 20.564808045798507, -78.49540661027564 19.898277545764127 M-77.18092647238016 21.092053627762194 C-77.69080690504819 20.628993709510073, -78.20068733771622 20.165933791257952, -78.49540661027564 19.898277545764127 M-78.49540661027564 19.898277545764127 C-78.95877050848098 19.41981627798357, -79.42213440668631 18.94135501020301, -79.73070051156894 18.62273517316335 M-78.49540661027564 19.898277545764127 C-78.87334590011703 19.508024199610123, -79.25128518995842 19.11777085345612, -79.73070051156894 18.62273517316335 M-79.73070051156894 18.62273517316335 C-80.12717486086686 18.157013842448436, -80.52364921016478 17.691292511733522, -80.88173208864991 17.27066798717189 M-79.73070051156894 18.62273517316335 C-80.18863274481346 18.08482191491209, -80.646564978058 17.546908656660836, -80.88173208864991 17.27066798717189 M-80.88173208864991 17.27066798717189 C-81.15146739883063 16.909247244922003, -81.42120270901137 16.547826502672116, -81.94377150587286 15.84763192187448 M-80.88173208864991 17.27066798717189 C-81.15436190677653 16.905368867969607, -81.42699172490315 16.540069748767323, -81.94377150587286 15.84763192187448 M-81.94377150587286 15.84763192187448 C-82.16739478660676 15.504086511408348, -82.39101806734068 15.160541100942215, -82.91245461546563 14.359474537703703 M-81.94377150587286 15.84763192187448 C-82.32948534703675 15.255071883178001, -82.71519918820064 14.662511844481523, -82.91245461546563 14.359474537703703 M-82.91245461546563 14.359474537703703 C-83.19446052821083 13.858744483429422, -83.47646644095602 13.358014429155144, -83.78380089074909 12.81231099255985 M-82.91245461546563 14.359474537703703 C-83.18838234119742 13.869536919954895, -83.46431006692922 13.379599302206088, -83.78380089074909 12.81231099255985 M-83.78380089074909 12.81231099255985 C-84.06587521830184 12.226577615972817, -84.3479495458546 11.640844239385784, -84.55422978297489 11.212498913315502 M-83.78380089074909 12.81231099255985 C-83.95839682871983 12.449758791608996, -84.13299276669058 12.087206590658143, -84.55422978297489 11.212498913315502 M-84.55422978297489 11.212498913315502 C-84.79711107481309 10.612577426684828, -85.03999236665128 10.012655940054156, -85.22057543456836 9.566612270962864 M-84.55422978297489 11.212498913315502 C-84.6908656187151 10.875005757363011, -84.8275014544553 10.53751260141052, -85.22057543456836 9.566612270962864 M-85.22057543456836 9.566612270962864 C-85.40533216879828 9.01015442445033, -85.59008890302819 8.453696577937798, -85.78009968831644 7.88141436675692 M-85.22057543456836 9.566612270962864 C-85.40080203442625 9.023798467399967, -85.58102863428415 8.480984663837068, -85.78009968831644 7.88141436675692 M-85.78009968831644 7.88141436675692 C-85.9445948751504 7.254122926694066, -86.10909006198436 6.626831486631213, -86.23050333904288 6.163830040359915 M-85.78009968831644 7.88141436675692 C-85.90850476242863 7.391750168055942, -86.03690983654084 6.902085969354962, -86.23050333904288 6.163830040359915 M-86.23050333904288 6.163830040359915 C-86.29848499479499 5.8147586060008765, -86.3664666505471 5.4656871716418385, -86.5699355815356 4.420917214189674 M-86.23050333904288 6.163830040359915 C-86.35459553384908 5.526642846924751, -86.47868772865529 4.889455653489586, -86.5699355815356 4.420917214189674 M-86.5699355815356 4.420917214189674 C-86.64949530399535 3.803867717636086, -86.7290550264551 3.1868182210824982, -86.79700161590219 2.6598378909025606 M-86.5699355815356 4.420917214189674 C-86.64034316676803 3.87484988667721, -86.71075075200048 3.328782559164746, -86.79700161590219 2.6598378909025606 M-86.79700161590219 2.6598378909025606 C-86.83764283232493 2.0268181401190546, -86.87828404874766 1.393798389335549, -86.91076837910194 0.8878287231882646 M-86.79700161590219 2.6598378909025606 C-86.82142234123502 2.2794653817889525, -86.84584306656787 1.899092872675344, -86.91076837910194 0.8878287231882646 M-86.91076837910194 0.8878287231882646 C-86.91076837910194 0.44088589816457474, -86.91076837910194 -0.006056926859115075, -86.91076837910194 -0.8878287231882511 M-86.91076837910194 0.8878287231882646 C-86.91076837910194 0.2495317989950503, -86.91076837910194 -0.388765125198164, -86.91076837910194 -0.8878287231882511 M-86.91076837910194 -0.8878287231882511 C-86.87883642248302 -1.3851947225393797, -86.84690446586409 -1.882560721890508, -86.79700161590219 -2.6598378909025224 M-86.91076837910194 -0.8878287231882511 C-86.88383962145201 -1.3072658600877936, -86.85691086380209 -1.7267029969873362, -86.79700161590219 -2.6598378909025224 M-86.79700161590219 -2.6598378909025224 C-86.74200038299884 -3.0864165920790274, -86.68699915009549 -3.5129952932555324, -86.56993558153562 -4.420917214189662 M-86.79700161590219 -2.6598378909025224 C-86.72845480052575 -3.191473454862456, -86.65990798514932 -3.72310901882239, -86.56993558153562 -4.420917214189662 M-86.56993558153562 -4.420917214189662 C-86.4509899845304 -5.031677715650631, -86.33204438752517 -5.642438217111601, -86.2305033390429 -6.163830040359902 M-86.56993558153562 -4.420917214189662 C-86.4443477933559 -5.065783963504039, -86.3187600051762 -5.710650712818416, -86.2305033390429 -6.163830040359902 M-86.2305033390429 -6.163830040359902 C-86.1197073272655 -6.586343252562385, -86.00891131548809 -7.008856464764867, -85.78009968831644 -7.881414366756906 M-86.2305033390429 -6.163830040359902 C-86.08980362186749 -6.700379041592883, -85.94910390469208 -7.236928042825863, -85.78009968831644 -7.881414366756906 M-85.78009968831644 -7.881414366756906 C-85.66235427427947 -8.236044793652248, -85.54460886024248 -8.59067522054759, -85.22057543456836 -9.566612270962828 M-85.78009968831644 -7.881414366756906 C-85.60132917323867 -8.419842674957664, -85.4225586581609 -8.958270983158421, -85.22057543456836 -9.566612270962828 M-85.22057543456836 -9.566612270962828 C-85.0579165302154 -9.968382909510629, -84.89525762586243 -10.370153548058429, -84.55422978297489 -11.212498913315487 M-85.22057543456836 -9.566612270962828 C-85.06379746695134 -9.95385688207268, -84.90701949933431 -10.341101493182533, -84.55422978297489 -11.212498913315487 M-84.55422978297489 -11.212498913315487 C-84.2929120471741 -11.755130783009669, -84.0315943113733 -12.297762652703849, -83.7838008907491 -12.812310992559837 M-84.55422978297489 -11.212498913315487 C-84.36246067108956 -11.61071157734704, -84.17069155920423 -12.00892424137859, -83.7838008907491 -12.812310992559837 M-83.7838008907491 -12.812310992559837 C-83.548160439145 -13.230714475566089, -83.31251998754088 -13.649117958572338, -82.91245461546565 -14.359474537703692 M-83.7838008907491 -12.812310992559837 C-83.53152528055288 -13.260251884138846, -83.27924967035666 -13.708192775717855, -82.91245461546565 -14.359474537703692 M-82.91245461546565 -14.359474537703692 C-82.60644504119698 -14.829587418856649, -82.30043546692832 -15.299700300009604, -81.94377150587286 -15.847631921874472 M-82.91245461546565 -14.359474537703692 C-82.6939809499733 -14.69510875629349, -82.47550728448093 -15.030742974883287, -81.94377150587286 -15.847631921874472 M-81.94377150587286 -15.847631921874472 C-81.58603856653953 -16.326961470439915, -81.22830562720621 -16.80629101900536, -80.88173208864993 -17.270667987171883 M-81.94377150587286 -15.847631921874472 C-81.62798451123913 -16.270757725896633, -81.3121975166054 -16.693883529918793, -80.88173208864993 -17.270667987171883 M-80.88173208864993 -17.270667987171883 C-80.60057339453547 -17.60093298766163, -80.31941470042102 -17.931197988151375, -79.73070051156895 -18.62273517316334 M-80.88173208864993 -17.270667987171883 C-80.44326544786469 -17.785715852896875, -80.00479880707945 -18.300763718621866, -79.73070051156895 -18.62273517316334 M-79.73070051156895 -18.62273517316334 C-79.3730261779755 -18.992063288207497, -79.01535184438204 -19.361391403251655, -78.49540661027567 -19.8982775457641 M-79.73070051156895 -18.62273517316334 C-79.46873157762573 -18.89323960550918, -79.20676264368252 -19.16374403785502, -78.49540661027567 -19.8982775457641 M-78.49540661027567 -19.8982775457641 C-78.15680867510405 -20.205783231676534, -77.81821073993241 -20.513288917588966, -77.1809264723802 -21.09205362776217 M-78.49540661027567 -19.8982775457641 C-78.16824405527284 -20.19539792197081, -77.84108150027001 -20.492518298177522, -77.1809264723802 -21.09205362776217 M-77.1809264723802 -21.09205362776217 C-76.63809562067348 -21.524946786662642, -76.09526476896676 -21.957839945563116, -75.79266157872422 -22.199157937172462 M-77.1809264723802 -21.09205362776217 C-76.8276040081478 -21.373818890681854, -76.47428154391541 -21.655584153601538, -75.79266157872422 -22.199157937172462 M-75.79266157872422 -22.199157937172462 C-75.35261668108356 -22.506114208529983, -74.91257178344291 -22.813070479887507, -74.33631660753773 -23.215041144914455 M-75.79266157872422 -22.199157937172462 C-75.37803064078517 -22.48838653039473, -74.96339970284612 -22.777615123617, -74.33631660753773 -23.215041144914455 M-74.33631660753773 -23.215041144914455 C-73.84443571358058 -23.513222233444257, -73.35255481962345 -23.811403321974062, -72.81787599269227 -24.1355287689813 M-74.33631660753773 -23.215041144914455 C-73.95642142548238 -23.445335836788303, -73.57652624342703 -23.67563052866215, -72.81787599269227 -24.1355287689813 M-72.81787599269227 -24.1355287689813 C-72.23650389862107 -24.43883021807165, -71.65513180454985 -24.742131667162, -71.2435793323788 -24.9568383282817 M-72.81787599269227 -24.1355287689813 C-72.27671808171921 -24.417850504507754, -71.73556017074617 -24.700172240034213, -71.2435793323788 -24.9568383282817 M-71.2435793323788 -24.9568383282817 C-70.89759734097858 -25.109994292683457, -70.55161534957836 -25.26315025708521, -69.6198957492601 -25.67559488566616 M-71.2435793323788 -24.9568383282817 C-70.71727417819555 -25.189818007750933, -70.1909690240123 -25.422797687220168, -69.6198957492601 -25.67559488566616 M-69.6198957492601 -25.67559488566616 C-69.02263247175513 -25.895393292829205, -68.42536919425017 -26.115191699992245, -67.95349730745822 -26.28884491626759 M-69.6198957492601 -25.67559488566616 C-69.04376709327917 -25.88761555674206, -68.46763843729823 -26.099636227817957, -67.95349730745822 -26.28884491626759 M-67.95349730745822 -26.28884491626759 C-67.42323710567997 -26.446223360762772, -66.89297690390174 -26.603601805257956, -66.25123159561188 -26.79406844416852 M-67.95349730745822 -26.28884491626759 C-67.33590771206379 -26.472142266386715, -66.71831811666937 -26.65543961650584, -66.25123159561188 -26.79406844416852 M-66.25123159561188 -26.79406844416852 C-65.84904780986288 -26.885864268771257, -65.44686402411388 -26.977660093373995, -64.5200935886659 -27.189189397522714 M-66.25123159561188 -26.79406844416852 C-65.8124853911474 -26.894209402250983, -65.37373918668293 -26.99435036033345, -64.5200935886659 -27.189189397522714 M-64.5200935886659 -27.189189397522714 C-64.1594471125817 -27.247495922920816, -63.79880063649749 -27.305802448318914, -62.767196904018775 -27.472584139579645 M-64.5200935886659 -27.189189397522714 C-64.1463953828743 -27.24960602536223, -63.77269717708271 -27.310022653201745, -62.767196904018775 -27.472584139579645 M-62.767196904018775 -27.472584139579645 C-62.26305945892877 -27.521217672593494, -61.75892201383878 -27.569851205607343, -60.99974457014286 -27.64308814055623 M-62.767196904018775 -27.472584139579645 C-62.07276589693994 -27.539575063657065, -61.37833488986111 -27.606565987734484, -60.99974457014286 -27.64308814055623 M-60.99974457014286 -27.64308814055623 C-60.613627912145276 -27.65547015024773, -60.22751125414769 -27.66785215993923, -59.22499942779542 -27.700000762939453 M-60.99974457014286 -27.64308814055623 C-60.45812819675577 -27.660456723458438, -59.91651182336868 -27.677825306360642, -59.22499942779542 -27.700000762939453 M-59.22499942779542 -27.700000762939453 C-59.22499942779542 -27.700000762939453, -59.22499942779542 -27.700000762939453, -59.22499942779541 -27.700000762939453 M-59.22499942779542 -27.700000762939453 C-59.22499942779542 -27.700000762939453, -59.22499942779541 -27.700000762939453, -59.22499942779541 -27.700000762939453" stroke="#1f5f8b" stroke-width="1.3" fill="none" stroke-dasharray="0 0" style=""/></g><g class="label" style="" transform="translate(0, -15.700000762939453)"><rect/><g><rect class="background" style="stroke: none"/><text y="-10.1" style=""><tspan class="text-outer-tspan row" x="0" y="-0.1em" dy="1.1em"><tspan font-style="normal" class="text-inner-tspan" font-weight="normal">Pull</tspan><tspan font-style="normal" class="text-inner-tspan" font-weight="normal"> request</tspan><tspan font-style="normal" class="text-inner-tspan" font-weight="normal"> or</tspan></tspan><tspan class="text-outer-tspan row" x="0" y="1em" dy="1.1em"><tspan font-style="normal" class="text-inner-tspan" font-weight="normal">push</tspan></tspan></text></g></g></g><g class="node default" id="my-svg-flowchart-ci-1" data-look="neo" transform="translate(301.821533203125, 92)"><rect class="basic label-container" style="" x="-76" y="-66.20000076293945" width="152" height="132.4000015258789"/><g class="label" style="" transform="translate(0, -54.20000076293945)"><rect/><g><rect class="background" style="stroke: none"/><text y="-10.1" style=""><tspan class="text-outer-tspan row" x="0" y="-0.1em" dy="1.1em"><tspan font-style="normal" class="text-inner-tspan" font-weight="normal">GitHub-hosted</tspan></tspan><tspan class="text-outer-tspan row" x="0" y="1em" dy="1.1em"><tspan font-style="normal" class="text-inner-tspan" font-weight="normal">checks</tspan></tspan><tspan class="text-outer-tspan row" x="0" y="2.1em" dy="1.1em"><tspan font-style="normal" class="text-inner-tspan" font-weight="normal">components,</tspan></tspan><tspan class="text-outer-tspan row" x="0" y="3.2em" dy="1.1em"><tspan font-style="normal" class="text-inner-tspan" font-weight="normal">contracts,</tspan></tspan><tspan class="text-outer-tspan row" x="0" y="4.300000000000001em" dy="1.1em"><tspan font-style="normal" class="text-inner-tspan" font-weight="normal">gitleaks,</tspan></tspan><tspan class="text-outer-tspan row" x="0" y="5.4em" dy="1.1em"><tspan font-style="normal" class="text-inner-tspan" font-weight="normal">actionlint,</tspan></tspan><tspan class="text-outer-tspan row" x="0" y="6.500000000000001em" dy="1.1em"><tspan font-style="normal" class="text-inner-tspan" font-weight="normal">zizmor,</tspan><tspan font-style="normal" class="text-inner-tspan" font-weight="normal"> docs</tspan></tspan></text></g></g></g><g class="node default" id="my-svg-flowchart-review-2" data-look="neo" transform="translate(497.821533203125, 92)"><polygon points="79.99999952316284,0 159.99999904632568,-79.99999952316284 79.99999952316284,-159.99999904632568 0,-79.99999952316284" class="label-container" transform="translate(-79.49999952316284, 79.99999952316284)"/><g class="label" style="" transform="translate(0, -7.999999523162842)"><rect/><g><rect class="background" style="stroke: none"/><text y="-10.1" style=""><tspan class="text-outer-tspan row" x="0" y="-0.1em" dy="1.1em"><tspan font-style="normal" class="text-inner-tspan" font-weight="normal">Operator</tspan><tspan font-style="normal" class="text-inner-tspan" font-weight="normal"> review</tspan></tspan></text></g></g></g><g class="node default" id="my-svg-flowchart-local-3" data-look="neo" transform="translate(880.805908203125, 92)"><rect class="basic label-container" style="" x="-76" y="-43.10000038146973" width="152" height="86.20000076293945"/><g class="label" style="" transform="translate(0, -31.100000381469727)"><rect/><g><rect class="background" style="stroke: none"/><text y="-10.1" style=""><tspan class="text-outer-tspan row" x="0" y="-0.1em" dy="1.1em"><tspan font-style="normal" class="text-inner-tspan" font-weight="normal">Local</tspan></tspan><tspan class="text-outer-tspan row" x="0" y="1em" dy="1.1em"><tspan font-style="normal" class="text-inner-tspan" font-weight="normal">devcontainer</tspan></tspan><tspan class="text-outer-tspan row" x="0" y="2.1em" dy="1.1em"><tspan font-style="normal" class="text-inner-tspan" font-weight="normal">plan</tspan><tspan font-style="normal" class="text-inner-tspan" font-weight="normal"> and</tspan><tspan font-style="normal" class="text-inner-tspan" font-weight="normal"> gated</tspan></tspan><tspan class="text-outer-tspan row" x="0" y="3.2em" dy="1.1em"><tspan font-style="normal" class="text-inner-tspan" font-weight="normal">make</tspan><tspan font-style="normal" class="text-inner-tspan" font-weight="normal"> stage</tspan></tspan></text></g></g></g><g class="node default" id="my-svg-flowchart-lab-4" data-look="neo" transform="translate(1072.805908203125, 92)"><rect class="basic label-container" style="" x="-76" y="-19.999999523162842" width="152" height="39.999999046325684"/><g class="label" style="" transform="translate(0, -7.999999523162842)"><rect/><g><rect class="background" style="stroke: none"/><text y="-10.1" style=""><tspan class="text-outer-tspan row" x="0" y="-0.1em" dy="1.1em"><tspan font-style="normal" class="text-inner-tspan" font-weight="normal">Lab</tspan></tspan></text></g></g></g></g></g></g><defs><filter id="my-svg-drop-shadow" height="130%" width="130%"><feDropShadow dx="4" dy="4" stdDeviation="0" flood-opacity="0.06" flood-color="#000000"/></filter></defs><defs><filter id="my-svg-drop-shadow-small" height="150%" width="150%"><feDropShadow dx="2" dy="2" stdDeviation="0" flood-opacity="0.06" flood-color="#000000"/></filter></defs><linearGradient id="my-svg-gradient" gradientUnits="objectBoundingBox" x1="0%" y1="0%" x2="100%" y2="0%"><stop offset="0%" stop-color="#1f5f8b" stop-opacity="1"/><stop offset="100%" stop-color="#8a94a6" stop-opacity="1"/></linearGradient></svg>